<mxfile host="Electron" modified="2023-12-09T06:58:02.078Z" agent="Mozilla/5.0 (Windows NT 10.0; Win64; x64) AppleWebKit/537.36 (KHTML, like Gecko) draw.io/22.1.2 Chrome/114.0.5735.289 Electron/25.9.4 Safari/537.36" etag="jCQivXqTQ5YnAXqgmnz0" version="22.1.2" type="device">
  <diagram id="R2lEEEUBdFMjLlhIrx00" name="Page-1">
    <mxGraphModel dx="1050" dy="629" grid="1" gridSize="10" guides="1" tooltips="1" connect="1" arrows="1" fold="1" page="1" pageScale="1" pageWidth="1200" pageHeight="1920" math="0" shadow="0" extFonts="Permanent Marker^https://fonts.googleapis.com/css?family=Permanent+Marker">
      <root>
        <mxCell id="0" />
        <mxCell id="1" parent="0" />
        <mxCell id="ZiMAjGdKUcruCcZAMp8x-1" value="Rooms" style="whiteSpace=wrap;html=1;align=center;" vertex="1" parent="1">
          <mxGeometry x="510" y="350" width="100" height="40" as="geometry" />
        </mxCell>
        <mxCell id="ZiMAjGdKUcruCcZAMp8x-2" value="Room_num" style="ellipse;whiteSpace=wrap;html=1;align=center;fontStyle=4;" vertex="1" parent="1">
          <mxGeometry x="520" y="280" width="100" height="40" as="geometry" />
        </mxCell>
        <mxCell id="ZiMAjGdKUcruCcZAMp8x-5" value="" style="endArrow=none;html=1;rounded=0;exitX=0.5;exitY=0;exitDx=0;exitDy=0;" edge="1" parent="1" source="ZiMAjGdKUcruCcZAMp8x-1" target="ZiMAjGdKUcruCcZAMp8x-2">
          <mxGeometry width="50" height="50" relative="1" as="geometry">
            <mxPoint x="780" y="500" as="sourcePoint" />
            <mxPoint x="830" y="450" as="targetPoint" />
          </mxGeometry>
        </mxCell>
        <mxCell id="ZiMAjGdKUcruCcZAMp8x-7" value="Rooms_type" style="whiteSpace=wrap;html=1;align=center;" vertex="1" parent="1">
          <mxGeometry x="870" y="350" width="100" height="40" as="geometry" />
        </mxCell>
        <mxCell id="ZiMAjGdKUcruCcZAMp8x-8" value="name" style="ellipse;whiteSpace=wrap;html=1;align=center;fontStyle=4;" vertex="1" parent="1">
          <mxGeometry x="790" y="420" width="100" height="40" as="geometry" />
        </mxCell>
        <mxCell id="ZiMAjGdKUcruCcZAMp8x-9" value="" style="endArrow=none;html=1;rounded=0;" edge="1" parent="1" source="ZiMAjGdKUcruCcZAMp8x-7" target="ZiMAjGdKUcruCcZAMp8x-8">
          <mxGeometry width="50" height="50" relative="1" as="geometry">
            <mxPoint x="780" y="500" as="sourcePoint" />
            <mxPoint x="830" y="450" as="targetPoint" />
          </mxGeometry>
        </mxCell>
        <mxCell id="ZiMAjGdKUcruCcZAMp8x-10" value="Guest" style="whiteSpace=wrap;html=1;align=center;" vertex="1" parent="1">
          <mxGeometry x="960" y="820" width="100" height="40" as="geometry" />
        </mxCell>
        <mxCell id="ZiMAjGdKUcruCcZAMp8x-11" value="GId" style="ellipse;whiteSpace=wrap;html=1;align=center;fontStyle=4;" vertex="1" parent="1">
          <mxGeometry x="850" y="890" width="100" height="40" as="geometry" />
        </mxCell>
        <mxCell id="ZiMAjGdKUcruCcZAMp8x-12" value="Name" style="ellipse;whiteSpace=wrap;html=1;align=center;" vertex="1" parent="1">
          <mxGeometry x="970" y="890" width="100" height="40" as="geometry" />
        </mxCell>
        <mxCell id="ZiMAjGdKUcruCcZAMp8x-13" value="Fname" style="ellipse;whiteSpace=wrap;html=1;align=center;" vertex="1" parent="1">
          <mxGeometry x="900" y="960" width="100" height="40" as="geometry" />
        </mxCell>
        <mxCell id="ZiMAjGdKUcruCcZAMp8x-14" value="Lname" style="ellipse;whiteSpace=wrap;html=1;align=center;" vertex="1" parent="1">
          <mxGeometry x="1030" y="960" width="100" height="40" as="geometry" />
        </mxCell>
        <mxCell id="ZiMAjGdKUcruCcZAMp8x-15" value="" style="endArrow=none;html=1;rounded=0;entryX=0;entryY=1;entryDx=0;entryDy=0;exitX=0.672;exitY=-0.01;exitDx=0;exitDy=0;exitPerimeter=0;" edge="1" parent="1" source="ZiMAjGdKUcruCcZAMp8x-13" target="ZiMAjGdKUcruCcZAMp8x-12">
          <mxGeometry width="50" height="50" relative="1" as="geometry">
            <mxPoint x="1180" y="900" as="sourcePoint" />
            <mxPoint x="1280" y="810" as="targetPoint" />
          </mxGeometry>
        </mxCell>
        <mxCell id="ZiMAjGdKUcruCcZAMp8x-16" value="" style="endArrow=none;html=1;rounded=0;exitX=0.772;exitY=0.9;exitDx=0;exitDy=0;exitPerimeter=0;entryX=0.34;entryY=0.05;entryDx=0;entryDy=0;entryPerimeter=0;" edge="1" parent="1" source="ZiMAjGdKUcruCcZAMp8x-12" target="ZiMAjGdKUcruCcZAMp8x-14">
          <mxGeometry width="50" height="50" relative="1" as="geometry">
            <mxPoint x="1230" y="860" as="sourcePoint" />
            <mxPoint x="1280" y="810" as="targetPoint" />
          </mxGeometry>
        </mxCell>
        <mxCell id="ZiMAjGdKUcruCcZAMp8x-17" value="" style="endArrow=none;html=1;rounded=0;exitX=0.5;exitY=1;exitDx=0;exitDy=0;entryX=0.436;entryY=-0.06;entryDx=0;entryDy=0;entryPerimeter=0;" edge="1" parent="1" source="ZiMAjGdKUcruCcZAMp8x-10" target="ZiMAjGdKUcruCcZAMp8x-12">
          <mxGeometry width="50" height="50" relative="1" as="geometry">
            <mxPoint x="1230" y="860" as="sourcePoint" />
            <mxPoint x="1280" y="810" as="targetPoint" />
          </mxGeometry>
        </mxCell>
        <mxCell id="ZiMAjGdKUcruCcZAMp8x-18" value="" style="endArrow=none;html=1;rounded=0;exitX=0.5;exitY=1;exitDx=0;exitDy=0;entryX=0.6;entryY=0;entryDx=0;entryDy=0;entryPerimeter=0;" edge="1" parent="1" source="ZiMAjGdKUcruCcZAMp8x-10" target="ZiMAjGdKUcruCcZAMp8x-11">
          <mxGeometry width="50" height="50" relative="1" as="geometry">
            <mxPoint x="1230" y="860" as="sourcePoint" />
            <mxPoint x="1280" y="810" as="targetPoint" />
          </mxGeometry>
        </mxCell>
        <mxCell id="ZiMAjGdKUcruCcZAMp8x-19" value="E-mail" style="ellipse;whiteSpace=wrap;html=1;align=center;" vertex="1" parent="1">
          <mxGeometry x="1090" y="890" width="100" height="40" as="geometry" />
        </mxCell>
        <mxCell id="ZiMAjGdKUcruCcZAMp8x-20" value="phone_number" style="ellipse;whiteSpace=wrap;html=1;align=center;" vertex="1" parent="1">
          <mxGeometry x="1220" y="890" width="100" height="40" as="geometry" />
        </mxCell>
        <mxCell id="ZiMAjGdKUcruCcZAMp8x-21" value="" style="endArrow=none;html=1;rounded=0;exitX=0.5;exitY=1;exitDx=0;exitDy=0;entryX=0.5;entryY=0;entryDx=0;entryDy=0;" edge="1" parent="1" source="ZiMAjGdKUcruCcZAMp8x-10" target="ZiMAjGdKUcruCcZAMp8x-19">
          <mxGeometry width="50" height="50" relative="1" as="geometry">
            <mxPoint x="1230" y="860" as="sourcePoint" />
            <mxPoint x="1280" y="810" as="targetPoint" />
          </mxGeometry>
        </mxCell>
        <mxCell id="ZiMAjGdKUcruCcZAMp8x-22" value="" style="endArrow=none;html=1;rounded=0;entryX=0.376;entryY=0;entryDx=0;entryDy=0;entryPerimeter=0;" edge="1" parent="1" target="ZiMAjGdKUcruCcZAMp8x-20">
          <mxGeometry width="50" height="50" relative="1" as="geometry">
            <mxPoint x="1030" y="860" as="sourcePoint" />
            <mxPoint x="1280" y="810" as="targetPoint" />
          </mxGeometry>
        </mxCell>
        <mxCell id="ZiMAjGdKUcruCcZAMp8x-23" value="single_bed_cnt" style="ellipse;whiteSpace=wrap;html=1;align=center;" vertex="1" parent="1">
          <mxGeometry x="880" y="440" width="100" height="40" as="geometry" />
        </mxCell>
        <mxCell id="ZiMAjGdKUcruCcZAMp8x-24" value="double_bed_cnt" style="ellipse;whiteSpace=wrap;html=1;align=center;" vertex="1" parent="1">
          <mxGeometry x="960" y="410" width="100" height="40" as="geometry" />
        </mxCell>
        <mxCell id="ZiMAjGdKUcruCcZAMp8x-25" value="" style="endArrow=none;html=1;rounded=0;" edge="1" parent="1" source="ZiMAjGdKUcruCcZAMp8x-7" target="ZiMAjGdKUcruCcZAMp8x-23">
          <mxGeometry width="50" height="50" relative="1" as="geometry">
            <mxPoint x="780" y="500" as="sourcePoint" />
            <mxPoint x="830" y="450" as="targetPoint" />
          </mxGeometry>
        </mxCell>
        <mxCell id="ZiMAjGdKUcruCcZAMp8x-26" value="" style="endArrow=none;html=1;rounded=0;" edge="1" parent="1" source="ZiMAjGdKUcruCcZAMp8x-7" target="ZiMAjGdKUcruCcZAMp8x-24">
          <mxGeometry width="50" height="50" relative="1" as="geometry">
            <mxPoint x="780" y="500" as="sourcePoint" />
            <mxPoint x="830" y="450" as="targetPoint" />
          </mxGeometry>
        </mxCell>
        <mxCell id="ZiMAjGdKUcruCcZAMp8x-27" value="of" style="shape=rhombus;perimeter=rhombusPerimeter;whiteSpace=wrap;html=1;align=center;" vertex="1" parent="1">
          <mxGeometry x="690" y="340" width="120" height="60" as="geometry" />
        </mxCell>
        <mxCell id="ZiMAjGdKUcruCcZAMp8x-28" value="" style="endArrow=classic;html=1;rounded=0;exitX=1;exitY=0.5;exitDx=0;exitDy=0;entryX=0;entryY=0.5;entryDx=0;entryDy=0;" edge="1" parent="1" source="ZiMAjGdKUcruCcZAMp8x-27" target="ZiMAjGdKUcruCcZAMp8x-7">
          <mxGeometry width="50" height="50" relative="1" as="geometry">
            <mxPoint x="780" y="600" as="sourcePoint" />
            <mxPoint x="830" y="550" as="targetPoint" />
          </mxGeometry>
        </mxCell>
        <mxCell id="ZiMAjGdKUcruCcZAMp8x-29" value="" style="shape=link;html=1;rounded=0;exitX=1;exitY=0.5;exitDx=0;exitDy=0;entryX=0;entryY=0.5;entryDx=0;entryDy=0;" edge="1" parent="1" source="ZiMAjGdKUcruCcZAMp8x-1" target="ZiMAjGdKUcruCcZAMp8x-27">
          <mxGeometry width="100" relative="1" as="geometry">
            <mxPoint x="760" y="580" as="sourcePoint" />
            <mxPoint x="860" y="580" as="targetPoint" />
          </mxGeometry>
        </mxCell>
        <mxCell id="ZiMAjGdKUcruCcZAMp8x-40" value="Price" style="whiteSpace=wrap;html=1;align=center;" vertex="1" parent="1">
          <mxGeometry x="870" y="150" width="100" height="40" as="geometry" />
        </mxCell>
        <mxCell id="ZiMAjGdKUcruCcZAMp8x-42" value="start_date" style="ellipse;whiteSpace=wrap;html=1;align=center;" vertex="1" parent="1">
          <mxGeometry x="785" y="90" width="100" height="40" as="geometry" />
        </mxCell>
        <mxCell id="ZiMAjGdKUcruCcZAMp8x-43" value="end_date" style="ellipse;whiteSpace=wrap;html=1;align=center;" vertex="1" parent="1">
          <mxGeometry x="905" y="90" width="100" height="40" as="geometry" />
        </mxCell>
        <mxCell id="ZiMAjGdKUcruCcZAMp8x-44" value="price" style="ellipse;whiteSpace=wrap;html=1;align=center;" vertex="1" parent="1">
          <mxGeometry x="1015" y="90" width="100" height="40" as="geometry" />
        </mxCell>
        <mxCell id="ZiMAjGdKUcruCcZAMp8x-46" value="" style="endArrow=none;html=1;rounded=0;" edge="1" parent="1" source="ZiMAjGdKUcruCcZAMp8x-40" target="ZiMAjGdKUcruCcZAMp8x-42">
          <mxGeometry width="50" height="50" relative="1" as="geometry">
            <mxPoint x="895" y="170" as="sourcePoint" />
            <mxPoint x="840" y="220" as="targetPoint" />
          </mxGeometry>
        </mxCell>
        <mxCell id="ZiMAjGdKUcruCcZAMp8x-47" value="" style="endArrow=none;html=1;rounded=0;" edge="1" parent="1" source="ZiMAjGdKUcruCcZAMp8x-40" target="ZiMAjGdKUcruCcZAMp8x-43">
          <mxGeometry width="50" height="50" relative="1" as="geometry">
            <mxPoint x="940" y="200" as="sourcePoint" />
            <mxPoint x="1020" y="210" as="targetPoint" />
          </mxGeometry>
        </mxCell>
        <mxCell id="ZiMAjGdKUcruCcZAMp8x-48" value="" style="endArrow=none;html=1;rounded=0;" edge="1" parent="1" source="ZiMAjGdKUcruCcZAMp8x-40" target="ZiMAjGdKUcruCcZAMp8x-44">
          <mxGeometry width="50" height="50" relative="1" as="geometry">
            <mxPoint x="940" y="200" as="sourcePoint" />
            <mxPoint x="1035" y="120" as="targetPoint" />
          </mxGeometry>
        </mxCell>
        <mxCell id="ZiMAjGdKUcruCcZAMp8x-49" value="of" style="shape=rhombus;perimeter=rhombusPerimeter;whiteSpace=wrap;html=1;align=center;" vertex="1" parent="1">
          <mxGeometry x="855" y="220" width="120" height="60" as="geometry" />
        </mxCell>
        <mxCell id="ZiMAjGdKUcruCcZAMp8x-55" value="" style="endArrow=none;html=1;rounded=0;entryX=0.25;entryY=1;entryDx=0;entryDy=0;" edge="1" parent="1" source="ZiMAjGdKUcruCcZAMp8x-49" target="ZiMAjGdKUcruCcZAMp8x-40">
          <mxGeometry width="50" height="50" relative="1" as="geometry">
            <mxPoint x="935" y="70" as="sourcePoint" />
            <mxPoint x="985" y="20" as="targetPoint" />
          </mxGeometry>
        </mxCell>
        <mxCell id="ZiMAjGdKUcruCcZAMp8x-56" value="" style="shape=link;html=1;rounded=0;" edge="1" parent="1" target="ZiMAjGdKUcruCcZAMp8x-49">
          <mxGeometry width="100" relative="1" as="geometry">
            <mxPoint x="920" y="350" as="sourcePoint" />
            <mxPoint x="920" y="230" as="targetPoint" />
          </mxGeometry>
        </mxCell>
        <mxCell id="ZiMAjGdKUcruCcZAMp8x-62" value="checkInDate" style="ellipse;whiteSpace=wrap;html=1;align=center;" vertex="1" parent="1">
          <mxGeometry x="1440" y="640" width="100" height="40" as="geometry" />
        </mxCell>
        <mxCell id="ZiMAjGdKUcruCcZAMp8x-63" value="reservationID" style="ellipse;whiteSpace=wrap;html=1;align=center;fontStyle=4;" vertex="1" parent="1">
          <mxGeometry x="1330" y="640" width="100" height="40" as="geometry" />
        </mxCell>
        <mxCell id="ZiMAjGdKUcruCcZAMp8x-65" value="checkOutDate" style="ellipse;whiteSpace=wrap;html=1;align=center;" vertex="1" parent="1">
          <mxGeometry x="1470" y="710" width="100" height="40" as="geometry" />
        </mxCell>
        <mxCell id="ZiMAjGdKUcruCcZAMp8x-66" value="totalCost" style="ellipse;whiteSpace=wrap;html=1;align=center;" vertex="1" parent="1">
          <mxGeometry x="1470" y="770" width="100" height="40" as="geometry" />
        </mxCell>
        <mxCell id="ZiMAjGdKUcruCcZAMp8x-67" value="" style="endArrow=none;html=1;rounded=0;" edge="1" parent="1" target="ZiMAjGdKUcruCcZAMp8x-63">
          <mxGeometry width="50" height="50" relative="1" as="geometry">
            <mxPoint x="1388" y="740" as="sourcePoint" />
            <mxPoint x="1110" y="860" as="targetPoint" />
          </mxGeometry>
        </mxCell>
        <mxCell id="ZiMAjGdKUcruCcZAMp8x-68" value="" style="endArrow=none;html=1;rounded=0;exitX=0.5;exitY=0;exitDx=0;exitDy=0;" edge="1" parent="1" target="ZiMAjGdKUcruCcZAMp8x-62">
          <mxGeometry width="50" height="50" relative="1" as="geometry">
            <mxPoint x="1390" y="740" as="sourcePoint" />
            <mxPoint x="1110" y="860" as="targetPoint" />
          </mxGeometry>
        </mxCell>
        <mxCell id="ZiMAjGdKUcruCcZAMp8x-69" value="" style="endArrow=none;html=1;rounded=0;" edge="1" parent="1" target="ZiMAjGdKUcruCcZAMp8x-65">
          <mxGeometry width="50" height="50" relative="1" as="geometry">
            <mxPoint x="1440" y="748.4615384615383" as="sourcePoint" />
            <mxPoint x="1470" y="730" as="targetPoint" />
          </mxGeometry>
        </mxCell>
        <mxCell id="ZiMAjGdKUcruCcZAMp8x-71" value="" style="endArrow=none;html=1;rounded=0;" edge="1" parent="1" target="ZiMAjGdKUcruCcZAMp8x-66">
          <mxGeometry width="50" height="50" relative="1" as="geometry">
            <mxPoint x="1440" y="771.5384615384617" as="sourcePoint" />
            <mxPoint x="1480" y="790" as="targetPoint" />
          </mxGeometry>
        </mxCell>
        <mxCell id="ZiMAjGdKUcruCcZAMp8x-73" value="service" style="shape=rhombus;perimeter=rhombusPerimeter;whiteSpace=wrap;html=1;align=center;" vertex="1" parent="1">
          <mxGeometry x="500" y="630" width="120" height="60" as="geometry" />
        </mxCell>
        <mxCell id="ZiMAjGdKUcruCcZAMp8x-74" value="date" style="ellipse;whiteSpace=wrap;html=1;align=center;" vertex="1" parent="1">
          <mxGeometry x="650" y="640" width="100" height="40" as="geometry" />
        </mxCell>
        <mxCell id="ZiMAjGdKUcruCcZAMp8x-75" value="" style="endArrow=none;html=1;rounded=0;exitX=1;exitY=0.5;exitDx=0;exitDy=0;" edge="1" parent="1" source="ZiMAjGdKUcruCcZAMp8x-73" target="ZiMAjGdKUcruCcZAMp8x-74">
          <mxGeometry width="50" height="50" relative="1" as="geometry">
            <mxPoint x="670" y="650" as="sourcePoint" />
            <mxPoint x="720" y="600" as="targetPoint" />
          </mxGeometry>
        </mxCell>
        <mxCell id="ZiMAjGdKUcruCcZAMp8x-78" value="" style="endArrow=none;html=1;rounded=0;entryX=0.5;entryY=1;entryDx=0;entryDy=0;" edge="1" parent="1" source="ZiMAjGdKUcruCcZAMp8x-73" target="ZiMAjGdKUcruCcZAMp8x-1">
          <mxGeometry width="50" height="50" relative="1" as="geometry">
            <mxPoint x="670" y="650" as="sourcePoint" />
            <mxPoint x="720" y="600" as="targetPoint" />
          </mxGeometry>
        </mxCell>
        <mxCell id="ZiMAjGdKUcruCcZAMp8x-79" value="" style="endArrow=classic;html=1;rounded=0;exitX=0.5;exitY=1;exitDx=0;exitDy=0;" edge="1" parent="1" source="ZiMAjGdKUcruCcZAMp8x-73" target="ZiMAjGdKUcruCcZAMp8x-10">
          <mxGeometry width="50" height="50" relative="1" as="geometry">
            <mxPoint x="670" y="650" as="sourcePoint" />
            <mxPoint x="720" y="600" as="targetPoint" />
          </mxGeometry>
        </mxCell>
        <mxCell id="ZiMAjGdKUcruCcZAMp8x-80" value="check_in" style="shape=rhombus;perimeter=rhombusPerimeter;whiteSpace=wrap;html=1;align=center;" vertex="1" parent="1">
          <mxGeometry x="330" y="630" width="120" height="60" as="geometry" />
        </mxCell>
        <mxCell id="ZiMAjGdKUcruCcZAMp8x-81" value="check_out" style="shape=rhombus;perimeter=rhombusPerimeter;whiteSpace=wrap;html=1;align=center;" vertex="1" parent="1">
          <mxGeometry x="800" y="630" width="120" height="60" as="geometry" />
        </mxCell>
        <mxCell id="ZiMAjGdKUcruCcZAMp8x-83" value="date" style="ellipse;whiteSpace=wrap;html=1;align=center;" vertex="1" parent="1">
          <mxGeometry x="260" y="700" width="100" height="40" as="geometry" />
        </mxCell>
        <mxCell id="ZiMAjGdKUcruCcZAMp8x-84" value="date" style="ellipse;whiteSpace=wrap;html=1;align=center;" vertex="1" parent="1">
          <mxGeometry x="910" y="680" width="100" height="40" as="geometry" />
        </mxCell>
        <mxCell id="ZiMAjGdKUcruCcZAMp8x-85" value="reservationID" style="ellipse;whiteSpace=wrap;html=1;align=center;fontStyle=4;" vertex="1" parent="1">
          <mxGeometry x="260" y="590" width="100" height="40" as="geometry" />
        </mxCell>
        <mxCell id="ZiMAjGdKUcruCcZAMp8x-86" value="reservationID" style="ellipse;whiteSpace=wrap;html=1;align=center;fontStyle=4;" vertex="1" parent="1">
          <mxGeometry x="930" y="620" width="100" height="40" as="geometry" />
        </mxCell>
        <mxCell id="ZiMAjGdKUcruCcZAMp8x-87" value="" style="endArrow=none;html=1;rounded=0;" edge="1" parent="1" source="ZiMAjGdKUcruCcZAMp8x-85" target="ZiMAjGdKUcruCcZAMp8x-80">
          <mxGeometry width="50" height="50" relative="1" as="geometry">
            <mxPoint x="600" y="570" as="sourcePoint" />
            <mxPoint x="650" y="520" as="targetPoint" />
          </mxGeometry>
        </mxCell>
        <mxCell id="ZiMAjGdKUcruCcZAMp8x-88" value="" style="endArrow=none;html=1;rounded=0;" edge="1" parent="1" source="ZiMAjGdKUcruCcZAMp8x-83" target="ZiMAjGdKUcruCcZAMp8x-80">
          <mxGeometry width="50" height="50" relative="1" as="geometry">
            <mxPoint x="600" y="570" as="sourcePoint" />
            <mxPoint x="650" y="520" as="targetPoint" />
          </mxGeometry>
        </mxCell>
        <mxCell id="ZiMAjGdKUcruCcZAMp8x-89" value="" style="endArrow=none;html=1;rounded=0;" edge="1" parent="1" source="ZiMAjGdKUcruCcZAMp8x-86" target="ZiMAjGdKUcruCcZAMp8x-81">
          <mxGeometry width="50" height="50" relative="1" as="geometry">
            <mxPoint x="600" y="570" as="sourcePoint" />
            <mxPoint x="650" y="520" as="targetPoint" />
          </mxGeometry>
        </mxCell>
        <mxCell id="ZiMAjGdKUcruCcZAMp8x-90" value="" style="endArrow=none;html=1;rounded=0;" edge="1" parent="1" source="ZiMAjGdKUcruCcZAMp8x-84" target="ZiMAjGdKUcruCcZAMp8x-81">
          <mxGeometry width="50" height="50" relative="1" as="geometry">
            <mxPoint x="600" y="570" as="sourcePoint" />
            <mxPoint x="650" y="520" as="targetPoint" />
          </mxGeometry>
        </mxCell>
        <mxCell id="ZiMAjGdKUcruCcZAMp8x-92" value="" style="endArrow=classic;html=1;rounded=0;exitX=0.5;exitY=1;exitDx=0;exitDy=0;" edge="1" parent="1" source="ZiMAjGdKUcruCcZAMp8x-80" target="ZiMAjGdKUcruCcZAMp8x-10">
          <mxGeometry width="50" height="50" relative="1" as="geometry">
            <mxPoint x="600" y="670" as="sourcePoint" />
            <mxPoint x="650" y="620" as="targetPoint" />
          </mxGeometry>
        </mxCell>
        <mxCell id="ZiMAjGdKUcruCcZAMp8x-94" value="" style="endArrow=classic;html=1;rounded=0;" edge="1" parent="1" source="ZiMAjGdKUcruCcZAMp8x-81" target="ZiMAjGdKUcruCcZAMp8x-10">
          <mxGeometry width="50" height="50" relative="1" as="geometry">
            <mxPoint x="600" y="670" as="sourcePoint" />
            <mxPoint x="650" y="620" as="targetPoint" />
          </mxGeometry>
        </mxCell>
        <mxCell id="ZiMAjGdKUcruCcZAMp8x-95" value="HouseKeeper" style="whiteSpace=wrap;html=1;align=center;" vertex="1" parent="1">
          <mxGeometry x="270" y="190" width="100" height="40" as="geometry" />
        </mxCell>
        <mxCell id="ZiMAjGdKUcruCcZAMp8x-96" value="HouseKeeperID" style="ellipse;whiteSpace=wrap;html=1;align=center;fontStyle=4;" vertex="1" parent="1">
          <mxGeometry x="140" y="230" width="100" height="40" as="geometry" />
        </mxCell>
        <mxCell id="ZiMAjGdKUcruCcZAMp8x-97" value="" style="endArrow=none;html=1;rounded=0;" edge="1" parent="1" source="ZiMAjGdKUcruCcZAMp8x-96" target="ZiMAjGdKUcruCcZAMp8x-95">
          <mxGeometry width="50" height="50" relative="1" as="geometry">
            <mxPoint x="590" y="490" as="sourcePoint" />
            <mxPoint x="640" y="440" as="targetPoint" />
          </mxGeometry>
        </mxCell>
        <mxCell id="ZiMAjGdKUcruCcZAMp8x-98" value="housekeep" style="shape=rhombus;perimeter=rhombusPerimeter;whiteSpace=wrap;html=1;align=center;" vertex="1" parent="1">
          <mxGeometry x="350" y="250" width="120" height="60" as="geometry" />
        </mxCell>
        <mxCell id="ZiMAjGdKUcruCcZAMp8x-102" value="date" style="ellipse;whiteSpace=wrap;html=1;align=center;" vertex="1" parent="1">
          <mxGeometry x="430" y="160" width="100" height="40" as="geometry" />
        </mxCell>
        <mxCell id="ZiMAjGdKUcruCcZAMp8x-103" value="" style="endArrow=none;html=1;rounded=0;" edge="1" parent="1" source="ZiMAjGdKUcruCcZAMp8x-98" target="ZiMAjGdKUcruCcZAMp8x-102">
          <mxGeometry width="50" height="50" relative="1" as="geometry">
            <mxPoint x="590" y="490" as="sourcePoint" />
            <mxPoint x="640" y="440" as="targetPoint" />
          </mxGeometry>
        </mxCell>
        <mxCell id="ZiMAjGdKUcruCcZAMp8x-104" value="" style="endArrow=classic;html=1;rounded=0;" edge="1" parent="1" source="ZiMAjGdKUcruCcZAMp8x-98" target="ZiMAjGdKUcruCcZAMp8x-95">
          <mxGeometry width="50" height="50" relative="1" as="geometry">
            <mxPoint x="590" y="490" as="sourcePoint" />
            <mxPoint x="640" y="440" as="targetPoint" />
          </mxGeometry>
        </mxCell>
        <mxCell id="ZiMAjGdKUcruCcZAMp8x-105" value="" style="endArrow=none;html=1;rounded=0;" edge="1" parent="1" source="ZiMAjGdKUcruCcZAMp8x-98" target="ZiMAjGdKUcruCcZAMp8x-1">
          <mxGeometry width="50" height="50" relative="1" as="geometry">
            <mxPoint x="590" y="490" as="sourcePoint" />
            <mxPoint x="640" y="440" as="targetPoint" />
          </mxGeometry>
        </mxCell>
        <mxCell id="ZiMAjGdKUcruCcZAMp8x-107" value="" style="endArrow=none;html=1;rounded=0;exitX=1;exitY=0;exitDx=0;exitDy=0;" edge="1" parent="1" source="ZiMAjGdKUcruCcZAMp8x-80" target="ZiMAjGdKUcruCcZAMp8x-1">
          <mxGeometry width="50" height="50" relative="1" as="geometry">
            <mxPoint x="490" y="440" as="sourcePoint" />
            <mxPoint x="540" y="390" as="targetPoint" />
          </mxGeometry>
        </mxCell>
        <mxCell id="ZiMAjGdKUcruCcZAMp8x-108" value="" style="endArrow=none;html=1;rounded=0;" edge="1" parent="1" source="ZiMAjGdKUcruCcZAMp8x-1" target="ZiMAjGdKUcruCcZAMp8x-81">
          <mxGeometry width="50" height="50" relative="1" as="geometry">
            <mxPoint x="650" y="500" as="sourcePoint" />
            <mxPoint x="700" y="450" as="targetPoint" />
          </mxGeometry>
        </mxCell>
        <mxCell id="ZiMAjGdKUcruCcZAMp8x-109" value="status" style="ellipse;whiteSpace=wrap;html=1;align=center;" vertex="1" parent="1">
          <mxGeometry x="540" y="190" width="100" height="40" as="geometry" />
        </mxCell>
        <mxCell id="ZiMAjGdKUcruCcZAMp8x-110" value="" style="endArrow=none;html=1;rounded=0;" edge="1" parent="1" source="ZiMAjGdKUcruCcZAMp8x-98" target="ZiMAjGdKUcruCcZAMp8x-109">
          <mxGeometry width="50" height="50" relative="1" as="geometry">
            <mxPoint x="440" y="290" as="sourcePoint" />
            <mxPoint x="490" y="240" as="targetPoint" />
          </mxGeometry>
        </mxCell>
        <mxCell id="ZiMAjGdKUcruCcZAMp8x-118" value="Available_room_type" style="whiteSpace=wrap;html=1;align=center;" vertex="1" parent="1">
          <mxGeometry x="1170" y="480" width="120" height="40" as="geometry" />
        </mxCell>
        <mxCell id="ZiMAjGdKUcruCcZAMp8x-119" value="count" style="ellipse;whiteSpace=wrap;html=1;align=center;" vertex="1" parent="1">
          <mxGeometry x="1210" y="385" width="100" height="40" as="geometry" />
        </mxCell>
        <mxCell id="ZiMAjGdKUcruCcZAMp8x-120" value="" style="endArrow=none;html=1;rounded=0;" edge="1" parent="1" source="ZiMAjGdKUcruCcZAMp8x-119" target="ZiMAjGdKUcruCcZAMp8x-118">
          <mxGeometry width="50" height="50" relative="1" as="geometry">
            <mxPoint x="1210" y="560" as="sourcePoint" />
            <mxPoint x="1260" y="510" as="targetPoint" />
          </mxGeometry>
        </mxCell>
        <mxCell id="ZiMAjGdKUcruCcZAMp8x-121" value="that" style="shape=rhombus;perimeter=rhombusPerimeter;whiteSpace=wrap;html=1;align=center;" vertex="1" parent="1">
          <mxGeometry x="1040" y="365" width="120" height="60" as="geometry" />
        </mxCell>
        <mxCell id="ZiMAjGdKUcruCcZAMp8x-132" value="date" style="ellipse;whiteSpace=wrap;html=1;align=center;" vertex="1" parent="1">
          <mxGeometry x="1320" y="410" width="100" height="40" as="geometry" />
        </mxCell>
        <mxCell id="ZiMAjGdKUcruCcZAMp8x-134" value="room_type_name" style="ellipse;whiteSpace=wrap;html=1;align=center;" vertex="1" parent="1">
          <mxGeometry x="1410" y="460" width="100" height="40" as="geometry" />
        </mxCell>
        <mxCell id="ZiMAjGdKUcruCcZAMp8x-135" value="" style="endArrow=none;html=1;rounded=0;" edge="1" parent="1" source="ZiMAjGdKUcruCcZAMp8x-132" target="ZiMAjGdKUcruCcZAMp8x-118">
          <mxGeometry width="50" height="50" relative="1" as="geometry">
            <mxPoint x="1230" y="540" as="sourcePoint" />
            <mxPoint x="1280" y="490" as="targetPoint" />
          </mxGeometry>
        </mxCell>
        <mxCell id="ZiMAjGdKUcruCcZAMp8x-136" value="" style="endArrow=none;html=1;rounded=0;" edge="1" parent="1" source="ZiMAjGdKUcruCcZAMp8x-118" target="ZiMAjGdKUcruCcZAMp8x-134">
          <mxGeometry width="50" height="50" relative="1" as="geometry">
            <mxPoint x="1380" y="550" as="sourcePoint" />
            <mxPoint x="1430" y="500" as="targetPoint" />
          </mxGeometry>
        </mxCell>
        <mxCell id="ZiMAjGdKUcruCcZAMp8x-137" value="" style="endArrow=classic;html=1;rounded=0;" edge="1" parent="1" source="ZiMAjGdKUcruCcZAMp8x-121" target="ZiMAjGdKUcruCcZAMp8x-7">
          <mxGeometry width="50" height="50" relative="1" as="geometry">
            <mxPoint x="990" y="410" as="sourcePoint" />
            <mxPoint x="1040" y="360" as="targetPoint" />
          </mxGeometry>
        </mxCell>
        <mxCell id="ZiMAjGdKUcruCcZAMp8x-141" value="bill" style="whiteSpace=wrap;html=1;align=center;" vertex="1" parent="1">
          <mxGeometry x="470" y="820" width="100" height="40" as="geometry" />
        </mxCell>
        <mxCell id="ZiMAjGdKUcruCcZAMp8x-142" value="Payment" style="shape=rhombus;perimeter=rhombusPerimeter;whiteSpace=wrap;html=1;align=center;" vertex="1" parent="1">
          <mxGeometry x="640" y="820" width="120" height="60" as="geometry" />
        </mxCell>
        <mxCell id="ZiMAjGdKUcruCcZAMp8x-143" value="Payment method" style="ellipse;whiteSpace=wrap;html=1;align=center;" vertex="1" parent="1">
          <mxGeometry x="590" y="890" width="100" height="40" as="geometry" />
        </mxCell>
        <mxCell id="ZiMAjGdKUcruCcZAMp8x-147" value="date" style="ellipse;whiteSpace=wrap;html=1;align=center;" vertex="1" parent="1">
          <mxGeometry x="710" y="890" width="100" height="40" as="geometry" />
        </mxCell>
        <mxCell id="ZiMAjGdKUcruCcZAMp8x-148" value="" style="endArrow=none;html=1;rounded=0;entryX=0;entryY=1;entryDx=0;entryDy=0;exitX=0.5;exitY=0;exitDx=0;exitDy=0;" edge="1" parent="1" source="ZiMAjGdKUcruCcZAMp8x-143" target="ZiMAjGdKUcruCcZAMp8x-142">
          <mxGeometry width="50" height="50" relative="1" as="geometry">
            <mxPoint x="640" y="900" as="sourcePoint" />
            <mxPoint x="690" y="850" as="targetPoint" />
          </mxGeometry>
        </mxCell>
        <mxCell id="ZiMAjGdKUcruCcZAMp8x-149" value="" style="endArrow=none;html=1;rounded=0;entryX=0.5;entryY=0;entryDx=0;entryDy=0;" edge="1" parent="1" source="ZiMAjGdKUcruCcZAMp8x-142" target="ZiMAjGdKUcruCcZAMp8x-147">
          <mxGeometry width="50" height="50" relative="1" as="geometry">
            <mxPoint x="740" y="860" as="sourcePoint" />
            <mxPoint x="790" y="810" as="targetPoint" />
          </mxGeometry>
        </mxCell>
        <mxCell id="ZiMAjGdKUcruCcZAMp8x-151" value="amount" style="ellipse;whiteSpace=wrap;html=1;align=center;" vertex="1" parent="1">
          <mxGeometry x="400" y="950" width="100" height="40" as="geometry" />
        </mxCell>
        <mxCell id="ZiMAjGdKUcruCcZAMp8x-152" value="bill_id" style="ellipse;whiteSpace=wrap;html=1;align=center;fontStyle=4;" vertex="1" parent="1">
          <mxGeometry x="320" y="840" width="100" height="40" as="geometry" />
        </mxCell>
        <mxCell id="ZiMAjGdKUcruCcZAMp8x-153" value="date" style="ellipse;whiteSpace=wrap;html=1;align=center;" vertex="1" parent="1">
          <mxGeometry x="340" y="900" width="100" height="40" as="geometry" />
        </mxCell>
        <mxCell id="ZiMAjGdKUcruCcZAMp8x-154" value="" style="endArrow=none;html=1;rounded=0;" edge="1" parent="1" source="ZiMAjGdKUcruCcZAMp8x-152" target="ZiMAjGdKUcruCcZAMp8x-141">
          <mxGeometry width="50" height="50" relative="1" as="geometry">
            <mxPoint x="429.9953390593274" y="889.9978643762689" as="sourcePoint" />
            <mxPoint x="484.64" y="834.14" as="targetPoint" />
          </mxGeometry>
        </mxCell>
        <mxCell id="ZiMAjGdKUcruCcZAMp8x-155" value="" style="endArrow=none;html=1;rounded=0;" edge="1" parent="1" source="ZiMAjGdKUcruCcZAMp8x-153" target="ZiMAjGdKUcruCcZAMp8x-141">
          <mxGeometry width="50" height="50" relative="1" as="geometry">
            <mxPoint x="230" y="810" as="sourcePoint" />
            <mxPoint x="280" y="760" as="targetPoint" />
          </mxGeometry>
        </mxCell>
        <mxCell id="ZiMAjGdKUcruCcZAMp8x-156" value="" style="endArrow=none;html=1;rounded=0;" edge="1" parent="1" source="ZiMAjGdKUcruCcZAMp8x-151" target="ZiMAjGdKUcruCcZAMp8x-141">
          <mxGeometry width="50" height="50" relative="1" as="geometry">
            <mxPoint x="310" y="990" as="sourcePoint" />
            <mxPoint x="360" y="940" as="targetPoint" />
          </mxGeometry>
        </mxCell>
        <mxCell id="ZiMAjGdKUcruCcZAMp8x-157" value="" style="endArrow=classic;html=1;rounded=0;" edge="1" parent="1" source="ZiMAjGdKUcruCcZAMp8x-142" target="ZiMAjGdKUcruCcZAMp8x-10">
          <mxGeometry width="50" height="50" relative="1" as="geometry">
            <mxPoint x="800" y="870" as="sourcePoint" />
            <mxPoint x="850" y="820" as="targetPoint" />
          </mxGeometry>
        </mxCell>
        <mxCell id="ZiMAjGdKUcruCcZAMp8x-158" value="" style="endArrow=none;html=1;rounded=0;" edge="1" parent="1" source="ZiMAjGdKUcruCcZAMp8x-141" target="ZiMAjGdKUcruCcZAMp8x-142">
          <mxGeometry width="50" height="50" relative="1" as="geometry">
            <mxPoint x="510" y="800" as="sourcePoint" />
            <mxPoint x="560" y="750" as="targetPoint" />
          </mxGeometry>
        </mxCell>
        <mxCell id="ZiMAjGdKUcruCcZAMp8x-162" value="" style="endArrow=classic;html=1;rounded=0;exitX=0;exitY=1;exitDx=0;exitDy=0;" edge="1" parent="1" target="ZiMAjGdKUcruCcZAMp8x-10">
          <mxGeometry width="50" height="50" relative="1" as="geometry">
            <mxPoint x="1190" y="805" as="sourcePoint" />
            <mxPoint x="1130" y="750" as="targetPoint" />
          </mxGeometry>
        </mxCell>
        <mxCell id="ZiMAjGdKUcruCcZAMp8x-167" value="Reserve" style="shape=rhombus;perimeter=rhombusPerimeter;whiteSpace=wrap;html=1;align=center;" vertex="1" parent="1">
          <mxGeometry x="1030" y="570" width="120" height="60" as="geometry" />
        </mxCell>
        <mxCell id="ZiMAjGdKUcruCcZAMp8x-170" value="" style="endArrow=none;html=1;rounded=0;" edge="1" parent="1" source="ZiMAjGdKUcruCcZAMp8x-1" target="ZiMAjGdKUcruCcZAMp8x-167">
          <mxGeometry width="50" height="50" relative="1" as="geometry">
            <mxPoint x="940" y="580" as="sourcePoint" />
            <mxPoint x="990" y="530" as="targetPoint" />
          </mxGeometry>
        </mxCell>
        <mxCell id="ZiMAjGdKUcruCcZAMp8x-172" value="" style="endArrow=none;html=1;rounded=0;" edge="1" parent="1" target="ZiMAjGdKUcruCcZAMp8x-118">
          <mxGeometry width="50" height="50" relative="1" as="geometry">
            <mxPoint x="1268" y="576" as="sourcePoint" />
            <mxPoint x="1260" y="510" as="targetPoint" />
          </mxGeometry>
        </mxCell>
        <mxCell id="ZiMAjGdKUcruCcZAMp8x-174" value="" style="endArrow=classic;html=1;rounded=0;entryX=0;entryY=0.5;entryDx=0;entryDy=0;" edge="1" parent="1" source="ZiMAjGdKUcruCcZAMp8x-167">
          <mxGeometry width="50" height="50" relative="1" as="geometry">
            <mxPoint x="1260" y="710" as="sourcePoint" />
            <mxPoint x="1340" y="760" as="targetPoint" />
          </mxGeometry>
        </mxCell>
        <mxCell id="ZiMAjGdKUcruCcZAMp8x-175" value="date" style="ellipse;whiteSpace=wrap;html=1;align=center;" vertex="1" parent="1">
          <mxGeometry x="1100" y="530" width="100" height="40" as="geometry" />
        </mxCell>
        <mxCell id="ZiMAjGdKUcruCcZAMp8x-176" value="" style="endArrow=none;html=1;rounded=0;" edge="1" parent="1" source="ZiMAjGdKUcruCcZAMp8x-167" target="ZiMAjGdKUcruCcZAMp8x-175">
          <mxGeometry width="50" height="50" relative="1" as="geometry">
            <mxPoint x="1180" y="660" as="sourcePoint" />
            <mxPoint x="1230" y="610" as="targetPoint" />
          </mxGeometry>
        </mxCell>
        <mxCell id="ZiMAjGdKUcruCcZAMp8x-177" value="" style="shape=link;html=1;rounded=0;" edge="1" parent="1" source="ZiMAjGdKUcruCcZAMp8x-121" target="ZiMAjGdKUcruCcZAMp8x-118">
          <mxGeometry width="100" relative="1" as="geometry">
            <mxPoint x="1160" y="460" as="sourcePoint" />
            <mxPoint x="1260" y="460" as="targetPoint" />
          </mxGeometry>
        </mxCell>
        <mxCell id="ZiMAjGdKUcruCcZAMp8x-178" value="reservation" style="shape=ext;margin=3;double=1;whiteSpace=wrap;html=1;align=center;" vertex="1" parent="1">
          <mxGeometry x="1340" y="740" width="100" height="40" as="geometry" />
        </mxCell>
        <mxCell id="ZiMAjGdKUcruCcZAMp8x-179" value="book" style="shape=rhombus;double=1;perimeter=rhombusPerimeter;whiteSpace=wrap;html=1;align=center;" vertex="1" parent="1">
          <mxGeometry x="1160" y="760" width="120" height="60" as="geometry" />
        </mxCell>
        <mxCell id="ZiMAjGdKUcruCcZAMp8x-180" value="of" style="shape=rhombus;double=1;perimeter=rhombusPerimeter;whiteSpace=wrap;html=1;align=center;" vertex="1" parent="1">
          <mxGeometry x="1220" y="570" width="120" height="60" as="geometry" />
        </mxCell>
        <mxCell id="ZiMAjGdKUcruCcZAMp8x-181" value="" style="shape=link;html=1;rounded=0;" edge="1" parent="1" source="ZiMAjGdKUcruCcZAMp8x-179" target="ZiMAjGdKUcruCcZAMp8x-178">
          <mxGeometry width="100" relative="1" as="geometry">
            <mxPoint x="1330" y="820" as="sourcePoint" />
            <mxPoint x="1430" y="820" as="targetPoint" />
          </mxGeometry>
        </mxCell>
        <mxCell id="ZiMAjGdKUcruCcZAMp8x-182" value="" style="shape=link;html=1;rounded=0;" edge="1" parent="1" source="ZiMAjGdKUcruCcZAMp8x-180" target="ZiMAjGdKUcruCcZAMp8x-178">
          <mxGeometry width="100" relative="1" as="geometry">
            <mxPoint x="1220" y="640" as="sourcePoint" />
            <mxPoint x="1320" y="640" as="targetPoint" />
          </mxGeometry>
        </mxCell>
        <mxCell id="ZiMAjGdKUcruCcZAMp8x-183" value="cancel" style="shape=rhombus;perimeter=rhombusPerimeter;whiteSpace=wrap;html=1;align=center;" vertex="1" parent="1">
          <mxGeometry x="1290" y="820" width="120" height="60" as="geometry" />
        </mxCell>
        <mxCell id="ZiMAjGdKUcruCcZAMp8x-184" value="" style="endArrow=classic;html=1;rounded=0;" edge="1" parent="1" source="ZiMAjGdKUcruCcZAMp8x-183" target="ZiMAjGdKUcruCcZAMp8x-10">
          <mxGeometry width="50" height="50" relative="1" as="geometry">
            <mxPoint x="1140" y="850" as="sourcePoint" />
            <mxPoint x="1280" y="820" as="targetPoint" />
          </mxGeometry>
        </mxCell>
        <mxCell id="ZiMAjGdKUcruCcZAMp8x-185" value="" style="endArrow=none;html=1;rounded=0;" edge="1" parent="1" source="ZiMAjGdKUcruCcZAMp8x-183" target="ZiMAjGdKUcruCcZAMp8x-178">
          <mxGeometry width="50" height="50" relative="1" as="geometry">
            <mxPoint x="1380" y="860" as="sourcePoint" />
            <mxPoint x="1430" y="810" as="targetPoint" />
          </mxGeometry>
        </mxCell>
        <mxCell id="ZiMAjGdKUcruCcZAMp8x-186" value="date" style="ellipse;whiteSpace=wrap;html=1;align=center;" vertex="1" parent="1">
          <mxGeometry x="1400" y="890" width="100" height="40" as="geometry" />
        </mxCell>
        <mxCell id="ZiMAjGdKUcruCcZAMp8x-187" value="" style="endArrow=none;html=1;rounded=0;" edge="1" parent="1" source="ZiMAjGdKUcruCcZAMp8x-183" target="ZiMAjGdKUcruCcZAMp8x-186">
          <mxGeometry width="50" height="50" relative="1" as="geometry">
            <mxPoint x="1410" y="870" as="sourcePoint" />
            <mxPoint x="1460" y="820" as="targetPoint" />
          </mxGeometry>
        </mxCell>
        <mxCell id="ZiMAjGdKUcruCcZAMp8x-188" value="Available_room_type의 count&amp;gt;0인 타입만 예약 가능" style="text;html=1;strokeColor=none;fillColor=none;align=center;verticalAlign=middle;whiteSpace=wrap;rounded=0;" vertex="1" parent="1">
          <mxGeometry x="1370" y="550" width="170" height="30" as="geometry" />
        </mxCell>
        <mxCell id="ZiMAjGdKUcruCcZAMp8x-189" value="Cancel.date != reservation.checkInDate" style="text;html=1;strokeColor=none;fillColor=none;align=center;verticalAlign=middle;whiteSpace=wrap;rounded=0;" vertex="1" parent="1">
          <mxGeometry x="1470" y="840" width="170" height="30" as="geometry" />
        </mxCell>
        <mxCell id="ZiMAjGdKUcruCcZAMp8x-190" value="status는 Complete, Incomplete 중 하나" style="text;html=1;strokeColor=none;fillColor=none;align=center;verticalAlign=middle;whiteSpace=wrap;rounded=0;" vertex="1" parent="1">
          <mxGeometry x="600" y="140" width="60" height="30" as="geometry" />
        </mxCell>
        <mxCell id="ZiMAjGdKUcruCcZAMp8x-191" value="price&amp;gt;0" style="text;html=1;strokeColor=none;fillColor=none;align=center;verticalAlign=middle;whiteSpace=wrap;rounded=0;" vertex="1" parent="1">
          <mxGeometry x="1115" y="70" width="60" height="30" as="geometry" />
        </mxCell>
      </root>
    </mxGraphModel>
  </diagram>
</mxfile>
